<mxfile host="app.diagrams.net" modified="2022-07-28T09:17:12.899Z" agent="5.0 (Windows NT 10.0; Win64; x64) AppleWebKit/537.36 (KHTML, like Gecko) Chrome/103.0.5060.114 Safari/537.36 Edg/103.0.1264.62" etag="kcuNkePJdFMiEqjUnSbr" version="20.1.1" type="github">
  <diagram id="C5RBs43oDa-KdzZeNtuy" name="Page-1">
    <mxGraphModel dx="1038" dy="579" grid="1" gridSize="10" guides="1" tooltips="1" connect="1" arrows="1" fold="1" page="1" pageScale="1" pageWidth="827" pageHeight="1169" math="0" shadow="0">
      <root>
        <mxCell id="WIyWlLk6GJQsqaUBKTNV-0" />
        <mxCell id="WIyWlLk6GJQsqaUBKTNV-1" parent="WIyWlLk6GJQsqaUBKTNV-0" />
        <mxCell id="TY5h5iizVJzrehyOOf4H-0" style="edgeStyle=orthogonalEdgeStyle;rounded=0;orthogonalLoop=1;jettySize=auto;html=1;endArrow=block;endFill=0;" edge="1" parent="WIyWlLk6GJQsqaUBKTNV-1" source="WIyWlLk6GJQsqaUBKTNV-3" target="TY5h5iizVJzrehyOOf4H-1">
          <mxGeometry relative="1" as="geometry">
            <mxPoint x="220" y="180" as="targetPoint" />
          </mxGeometry>
        </mxCell>
        <mxCell id="WIyWlLk6GJQsqaUBKTNV-3" value="SpringApplication#run" style="rounded=1;whiteSpace=wrap;html=1;fontSize=12;glass=0;strokeWidth=1;shadow=0;" parent="WIyWlLk6GJQsqaUBKTNV-1" vertex="1">
          <mxGeometry x="160" y="80" width="120" height="40" as="geometry" />
        </mxCell>
        <mxCell id="6piUoCR8zOtQVhnlRpC6-0" value="构造函数" style="edgeStyle=orthogonalEdgeStyle;rounded=0;orthogonalLoop=1;jettySize=auto;html=1;fontFamily=Helvetica;fontSize=12;fontColor=default;endArrow=block;endFill=0;" edge="1" parent="WIyWlLk6GJQsqaUBKTNV-1" source="TY5h5iizVJzrehyOOf4H-1" target="6piUoCR8zOtQVhnlRpC6-8">
          <mxGeometry relative="1" as="geometry">
            <mxPoint x="570" y="100" as="targetPoint" />
          </mxGeometry>
        </mxCell>
        <mxCell id="TY5h5iizVJzrehyOOf4H-1" value="new SrpingApplication()" style="rounded=1;whiteSpace=wrap;html=1;" vertex="1" parent="WIyWlLk6GJQsqaUBKTNV-1">
          <mxGeometry x="340" y="75" width="120" height="50" as="geometry" />
        </mxCell>
        <mxCell id="6piUoCR8zOtQVhnlRpC6-1" value="" style="shape=table;startSize=0;container=1;collapsible=0;childLayout=tableLayout;rounded=1;fontFamily=Helvetica;fontSize=12;fontColor=default;strokeColor=default;fillColor=default;html=1;" vertex="1" parent="WIyWlLk6GJQsqaUBKTNV-1">
          <mxGeometry x="610" width="180" height="200" as="geometry" />
        </mxCell>
        <mxCell id="6piUoCR8zOtQVhnlRpC6-2" value="" style="shape=tableRow;horizontal=0;startSize=0;swimlaneHead=0;swimlaneBody=0;top=0;left=0;bottom=0;right=0;collapsible=0;dropTarget=0;fillColor=none;points=[[0,0.5],[1,0.5]];portConstraint=eastwest;rounded=1;fontFamily=Helvetica;fontSize=12;fontColor=default;strokeColor=default;html=1;" vertex="1" parent="6piUoCR8zOtQVhnlRpC6-1">
          <mxGeometry width="180" height="40" as="geometry" />
        </mxCell>
        <mxCell id="6piUoCR8zOtQVhnlRpC6-3" value="1" style="shape=partialRectangle;html=1;whiteSpace=wrap;connectable=0;overflow=hidden;fillColor=none;top=0;left=0;bottom=0;right=0;pointerEvents=1;rounded=1;fontFamily=Helvetica;fontSize=12;fontColor=default;strokeColor=default;" vertex="1" parent="6piUoCR8zOtQVhnlRpC6-2">
          <mxGeometry width="90" height="40" as="geometry">
            <mxRectangle width="90" height="40" as="alternateBounds" />
          </mxGeometry>
        </mxCell>
        <mxCell id="6piUoCR8zOtQVhnlRpC6-4" value="推断应用类型是否为WEB" style="shape=partialRectangle;html=1;whiteSpace=wrap;connectable=0;overflow=hidden;fillColor=none;top=0;left=0;bottom=0;right=0;pointerEvents=1;rounded=1;fontFamily=Helvetica;fontSize=12;fontColor=default;strokeColor=default;" vertex="1" parent="6piUoCR8zOtQVhnlRpC6-2">
          <mxGeometry x="90" width="90" height="40" as="geometry">
            <mxRectangle width="90" height="40" as="alternateBounds" />
          </mxGeometry>
        </mxCell>
        <mxCell id="6piUoCR8zOtQVhnlRpC6-5" value="" style="shape=tableRow;horizontal=0;startSize=0;swimlaneHead=0;swimlaneBody=0;top=0;left=0;bottom=0;right=0;collapsible=0;dropTarget=0;fillColor=none;points=[[0,0.5],[1,0.5]];portConstraint=eastwest;rounded=1;fontFamily=Helvetica;fontSize=12;fontColor=default;strokeColor=default;html=1;" vertex="1" parent="6piUoCR8zOtQVhnlRpC6-1">
          <mxGeometry y="40" width="180" height="40" as="geometry" />
        </mxCell>
        <mxCell id="6piUoCR8zOtQVhnlRpC6-6" value="2" style="shape=partialRectangle;html=1;whiteSpace=wrap;connectable=0;overflow=hidden;fillColor=none;top=0;left=0;bottom=0;right=0;pointerEvents=1;rounded=1;fontFamily=Helvetica;fontSize=12;fontColor=default;strokeColor=default;" vertex="1" parent="6piUoCR8zOtQVhnlRpC6-5">
          <mxGeometry width="90" height="40" as="geometry">
            <mxRectangle width="90" height="40" as="alternateBounds" />
          </mxGeometry>
        </mxCell>
        <mxCell id="6piUoCR8zOtQVhnlRpC6-7" value="加载所有初始化器" style="shape=partialRectangle;html=1;whiteSpace=wrap;connectable=0;overflow=hidden;fillColor=none;top=0;left=0;bottom=0;right=0;pointerEvents=1;rounded=1;fontFamily=Helvetica;fontSize=12;fontColor=default;strokeColor=default;" vertex="1" parent="6piUoCR8zOtQVhnlRpC6-5">
          <mxGeometry x="90" width="90" height="40" as="geometry">
            <mxRectangle width="90" height="40" as="alternateBounds" />
          </mxGeometry>
        </mxCell>
        <mxCell id="6piUoCR8zOtQVhnlRpC6-8" value="" style="shape=tableRow;horizontal=0;startSize=0;swimlaneHead=0;swimlaneBody=0;top=0;left=0;bottom=0;right=0;collapsible=0;dropTarget=0;fillColor=none;points=[[0,0.5],[1,0.5]];portConstraint=eastwest;rounded=1;fontFamily=Helvetica;fontSize=12;fontColor=default;strokeColor=default;html=1;" vertex="1" parent="6piUoCR8zOtQVhnlRpC6-1">
          <mxGeometry y="80" width="180" height="40" as="geometry" />
        </mxCell>
        <mxCell id="6piUoCR8zOtQVhnlRpC6-9" value="" style="shape=partialRectangle;html=1;whiteSpace=wrap;connectable=0;overflow=hidden;fillColor=none;top=0;left=0;bottom=0;right=0;pointerEvents=1;rounded=1;fontFamily=Helvetica;fontSize=12;fontColor=default;strokeColor=default;" vertex="1" parent="6piUoCR8zOtQVhnlRpC6-8">
          <mxGeometry width="90" height="40" as="geometry">
            <mxRectangle width="90" height="40" as="alternateBounds" />
          </mxGeometry>
        </mxCell>
        <mxCell id="6piUoCR8zOtQVhnlRpC6-10" value="" style="shape=partialRectangle;html=1;whiteSpace=wrap;connectable=0;overflow=hidden;fillColor=none;top=0;left=0;bottom=0;right=0;pointerEvents=1;rounded=1;fontFamily=Helvetica;fontSize=12;fontColor=default;strokeColor=default;" vertex="1" parent="6piUoCR8zOtQVhnlRpC6-8">
          <mxGeometry x="90" width="90" height="40" as="geometry">
            <mxRectangle width="90" height="40" as="alternateBounds" />
          </mxGeometry>
        </mxCell>
        <mxCell id="6piUoCR8zOtQVhnlRpC6-11" value="" style="shape=tableRow;horizontal=0;startSize=0;swimlaneHead=0;swimlaneBody=0;top=0;left=0;bottom=0;right=0;collapsible=0;dropTarget=0;fillColor=none;points=[[0,0.5],[1,0.5]];portConstraint=eastwest;rounded=1;fontFamily=Helvetica;fontSize=12;fontColor=default;strokeColor=default;html=1;" vertex="1" parent="6piUoCR8zOtQVhnlRpC6-1">
          <mxGeometry y="120" width="180" height="40" as="geometry" />
        </mxCell>
        <mxCell id="6piUoCR8zOtQVhnlRpC6-12" value="" style="shape=partialRectangle;html=1;whiteSpace=wrap;connectable=0;overflow=hidden;fillColor=none;top=0;left=0;bottom=0;right=0;pointerEvents=1;rounded=1;fontFamily=Helvetica;fontSize=12;fontColor=default;strokeColor=default;" vertex="1" parent="6piUoCR8zOtQVhnlRpC6-11">
          <mxGeometry width="90" height="40" as="geometry">
            <mxRectangle width="90" height="40" as="alternateBounds" />
          </mxGeometry>
        </mxCell>
        <mxCell id="6piUoCR8zOtQVhnlRpC6-13" value="" style="shape=partialRectangle;html=1;whiteSpace=wrap;connectable=0;overflow=hidden;fillColor=none;top=0;left=0;bottom=0;right=0;pointerEvents=1;rounded=1;fontFamily=Helvetica;fontSize=12;fontColor=default;strokeColor=default;" vertex="1" parent="6piUoCR8zOtQVhnlRpC6-11">
          <mxGeometry x="90" width="90" height="40" as="geometry">
            <mxRectangle width="90" height="40" as="alternateBounds" />
          </mxGeometry>
        </mxCell>
        <mxCell id="6piUoCR8zOtQVhnlRpC6-14" value="" style="shape=tableRow;horizontal=0;startSize=0;swimlaneHead=0;swimlaneBody=0;top=0;left=0;bottom=0;right=0;collapsible=0;dropTarget=0;fillColor=none;points=[[0,0.5],[1,0.5]];portConstraint=eastwest;rounded=1;fontFamily=Helvetica;fontSize=12;fontColor=default;strokeColor=default;html=1;" vertex="1" parent="6piUoCR8zOtQVhnlRpC6-1">
          <mxGeometry y="160" width="180" height="40" as="geometry" />
        </mxCell>
        <mxCell id="6piUoCR8zOtQVhnlRpC6-15" value="" style="shape=partialRectangle;html=1;whiteSpace=wrap;connectable=0;overflow=hidden;fillColor=none;top=0;left=0;bottom=0;right=0;pointerEvents=1;rounded=1;fontFamily=Helvetica;fontSize=12;fontColor=default;strokeColor=default;" vertex="1" parent="6piUoCR8zOtQVhnlRpC6-14">
          <mxGeometry width="90" height="40" as="geometry">
            <mxRectangle width="90" height="40" as="alternateBounds" />
          </mxGeometry>
        </mxCell>
        <mxCell id="6piUoCR8zOtQVhnlRpC6-16" value="" style="shape=partialRectangle;html=1;whiteSpace=wrap;connectable=0;overflow=hidden;fillColor=none;top=0;left=0;bottom=0;right=0;pointerEvents=1;rounded=1;fontFamily=Helvetica;fontSize=12;fontColor=default;strokeColor=default;" vertex="1" parent="6piUoCR8zOtQVhnlRpC6-14">
          <mxGeometry x="90" width="90" height="40" as="geometry">
            <mxRectangle width="90" height="40" as="alternateBounds" />
          </mxGeometry>
        </mxCell>
        <mxCell id="6piUoCR8zOtQVhnlRpC6-21" value="&lt;pre style=&quot;background-color:#ffffff;color:#080808;font-family:&#39;JetBrains Mono&#39;,monospace;font-size:9.8pt;&quot;&gt;&lt;span style=&quot;color:#0033b3;&quot;&gt;public &lt;/span&gt;&lt;span style=&quot;color:#00627a;&quot;&gt;SpringApplication&lt;/span&gt;(&lt;span style=&quot;color:#000000;&quot;&gt;ResourceLoader &lt;/span&gt;resourceLoader, &lt;span style=&quot;color:#000000;&quot;&gt;Class&lt;/span&gt;&amp;lt;?&amp;gt;... primarySources) {&lt;br&gt;   &lt;span style=&quot;color:#0033b3;&quot;&gt;this&lt;/span&gt;.&lt;span style=&quot;color:#871094;&quot;&gt;resourceLoader &lt;/span&gt;= resourceLoader;&lt;br&gt;   &lt;span style=&quot;color:#000000;&quot;&gt;Assert&lt;/span&gt;.&lt;span style=&quot;font-style:italic;&quot;&gt;notNull&lt;/span&gt;(primarySources, &lt;span style=&quot;color:#067d17;&quot;&gt;&quot;PrimarySources must not be null&quot;&lt;/span&gt;);&lt;br&gt;   &lt;span style=&quot;color:#0033b3;&quot;&gt;this&lt;/span&gt;.&lt;span style=&quot;color:#871094;&quot;&gt;primarySources &lt;/span&gt;= &lt;span style=&quot;color:#0033b3;&quot;&gt;new &lt;/span&gt;LinkedHashSet&amp;lt;&amp;gt;(&lt;span style=&quot;color:#000000;&quot;&gt;Arrays&lt;/span&gt;.&lt;span style=&quot;font-style:italic;&quot;&gt;asList&lt;/span&gt;(primarySources));&lt;br&gt;   &lt;span style=&quot;color:#0033b3;&quot;&gt;this&lt;/span&gt;.&lt;span style=&quot;color:#871094;&quot;&gt;webApplicationType &lt;/span&gt;= &lt;span style=&quot;color:#000000;&quot;&gt;WebApplicationType&lt;/span&gt;.&lt;span style=&quot;font-style:italic;&quot;&gt;deduceFromClasspath&lt;/span&gt;(); //判断应用类型&lt;br&gt;   &lt;span style=&quot;color:#0033b3;&quot;&gt;this&lt;/span&gt;.&lt;span style=&quot;color:#871094;&quot;&gt;bootstrapRegistryInitializers &lt;/span&gt;= &lt;span style=&quot;color:#0033b3;&quot;&gt;new &lt;/span&gt;ArrayList&amp;lt;&amp;gt;(&lt;br&gt;         getSpringFactoriesInstances(&lt;span style=&quot;color:#000000;&quot;&gt;BootstrapRegistryInitializer&lt;/span&gt;.&lt;span style=&quot;color:#0033b3;&quot;&gt;class&lt;/span&gt;)); //这里将spring.factories 中的对象,都加载在缓存&lt;br&gt;   setInitializers((&lt;span style=&quot;color:#000000;&quot;&gt;Collection&lt;/span&gt;) getSpringFactoriesInstances(&lt;span style=&quot;color:#000000;&quot;&gt;ApplicationContextInitializer&lt;/span&gt;.&lt;span style=&quot;color:#0033b3;&quot;&gt;class&lt;/span&gt;));// 从缓存拿到初始化器 ApplicationContextInitializer&lt;br&gt;   setListeners((&lt;span style=&quot;color:#000000;&quot;&gt;Collection&lt;/span&gt;) getSpringFactoriesInstances(&lt;span style=&quot;color:#000000;&quot;&gt;ApplicationListener&lt;/span&gt;.&lt;span style=&quot;color:#0033b3;&quot;&gt;class&lt;/span&gt;));&lt;br&gt;   &lt;span style=&quot;color:#0033b3;&quot;&gt;this&lt;/span&gt;.&lt;span style=&quot;color:#871094;&quot;&gt;mainApplicationClass &lt;/span&gt;= deduceMainApplicationClass();&lt;br&gt;}&lt;/pre&gt;" style="text;whiteSpace=wrap;html=1;fontSize=12;fontFamily=Helvetica;fontColor=default;" vertex="1" parent="WIyWlLk6GJQsqaUBKTNV-1">
          <mxGeometry x="820" width="560" height="220" as="geometry" />
        </mxCell>
      </root>
    </mxGraphModel>
  </diagram>
</mxfile>
